HIERARCHY
ROOT Hips
{
  OFFSET 0 0 0
  CHANNELS 6 Xposition Yposition Zposition Zrotation Xrotation Yrotation
  JOINT LeftHip
  {
    OFFSET 3.43 2.84217e-014 0
    CHANNELS 3 Zrotation Xrotation Yrotation
    JOINT LeftKnee
    {
      OFFSET -2.70775e-013 -18.47 3.9528e-014
      CHANNELS 3 Zrotation Xrotation Yrotation
      JOINT LeftAnkle
      {
        OFFSET -3.03027e-012 -17.95 -1.10714e-012
        CHANNELS 3 Zrotation Xrotation Yrotation
        End Site
        {
          OFFSET 0 -3.12 0
        }
      }
    }
  }
  JOINT RightHip
  {
    OFFSET -3.43 2.13163e-014 -1.42109e-014
    CHANNELS 3 Zrotation Xrotation Yrotation
    JOINT RightKnee
    {
      OFFSET -1.63329e-013 -18.47 -2.95696e-013
      CHANNELS 3 Zrotation Xrotation Yrotation
      JOINT RightAnkle
      {
        OFFSET 2.37838e-012 -17.95 -2.37092e-012
        CHANNELS 3 Zrotation Xrotation Yrotation
        End Site
        {
          OFFSET 0 -3.12 0
        }
      }
    }
  }
  JOINT Chest
  {
    OFFSET -2.13163e-014 4.57 -3.86506e-013
    CHANNELS 3 Zrotation Xrotation Yrotation
    JOINT Chest2
    {
      OFFSET -7.10543e-015 6.57 -1.42109e-014
      CHANNELS 3 Zrotation Xrotation Yrotation
      JOINT LeftCollar
      {
        OFFSET 1.06 4.19 1.76
        CHANNELS 3 Zrotation Xrotation Yrotation
        JOINT LeftShoulder
        {
          OFFSET 5.81 -1.42109e-014 4.05436e-013
          CHANNELS 3 Zrotation Xrotation Yrotation
          JOINT LeftElbow
          {
            OFFSET 3.55534e-013 -12.08 -1.14749e-012
            CHANNELS 3 Zrotation Xrotation Yrotation
            JOINT LeftWrist
            {
              OFFSET -8.34522e-012 -9.82 -1.61369e-011
              CHANNELS 3 Zrotation Xrotation Yrotation
              End Site
              {
                OFFSET 0 -7.37 0
              }
            }
          }
        }
      }
      JOINT RightCollar
      {
        OFFSET -1.06 4.19 1.76
        CHANNELS 3 Zrotation Xrotation Yrotation
        JOINT RightShoulder
        {
          OFFSET -6.06 -7.10543e-015 4.78178e-014
          CHANNELS 3 Zrotation Xrotation Yrotation
          JOINT RightElbow
          {
            OFFSET -3.95618e-013 -11.08 -5.6565e-013
            CHANNELS 3 Zrotation Xrotation Yrotation
            JOINT RightWrist
            {
              OFFSET -5.21178e-012 -9.82 -5.51333e-012
              CHANNELS 3 Zrotation Xrotation Yrotation
              End Site
              {
                OFFSET 0 -7.14001 0
              }
            }
          }
        }
      }
      JOINT Neck
      {
        OFFSET -1.42109e-014 4.05 2.84217e-014
        CHANNELS 3 Zrotation Xrotation Yrotation
        JOINT Head
        {
          OFFSET 2.77901e-014 5.19 9.6792e-015
          CHANNELS 3 Zrotation Xrotation Yrotation
          End Site
          {
            OFFSET 0 4.14001 0
          }
        }
      }
    }
  }
}
MOTION
Frames:	17
Frame Time:	0.0333333
53.437 39.0038 52.8765 -7.31012 1.63757 -131.762 -9.3601 -2.86671 -8.77241 -0.933496 22.193 8.53185 3.33848 -13.4438 0.393585 -2.31761 -20.5796 -0.922585 -9.2666 64.5491 -1.35869 -4.86676 -5.29143 -0.225024 -2.40827 2.83035 -2.5621 -2.93157 4.30622 -3.44445 4.90021 -0.00169695 1.9485 16.8538 -11.6214 6.21232 -6.81137 -10.8546 -35.6206 6.75416 3.1392 -0.185289 -2.49273 0.190522 -4.34239 -18.7147 3.03832 -1.53473 9.98136 -14.8082 37.5846 -2.86611 -0.0330781 -0.000827507 1.89819 -5.69981 -1.1705 1.76508 -5.8789 -0.365023 
52.5437 39.1274 51.872 -6.32932 2.07492 -129.767 -7.72998 -0.212164 -8.09803 -0.556323 20.3073 5.9915 3.53619 -13.9466 0.43265 -1.86301 -23.1149 -0.734088 -5.11001 55.5742 -6.91862 -5.40494 -6.33774 -0.299459 -2.00872 2.75899 -3.38273 -2.32475 4.21406 -4.53381 5.27806 0.00416779 1.71748 16.6226 -14.5099 5.54628 -6.82556 -11.8316 -34.9361 6.94689 3.06257 -0.185934 -1.99697 0.161932 -4.71503 -19.0224 4.53253 -2.06153 9.76769 -14.8613 37.2591 -2.80137 -0.0836392 -0.0020451 2.3305 -5.55695 -1.40059 1.71788 -5.60984 -0.342903 
51.6358 39.1736 50.8448 -5.50582 2.33621 -128.043 -6.3331 2.24473 -7.59864 -0.129063 18.6926 3.81637 3.51136 -14.7727 0.455336 -1.88467 -23.9665 -0.579535 -2.37509 43.1443 -10.8056 -5.01986 -6.29407 -0.276175 -1.75591 2.66012 -4.06113 -1.90442 4.0804 -5.40665 5.69054 0.00922707 1.53107 16.2907 -16.9243 4.81904 -6.95599 -13.332 -34.3246 7.13072 2.95638 -0.184246 -1.48436 0.130284 -5.05743 -19.1901 5.79142 -2.64627 9.3678 -14.4932 36.8522 -2.78159 -0.0553745 -0.00134442 2.77694 -5.48513 -1.59082 1.73808 -5.37775 -0.33675 
50.6914 39.1339 49.7866 -4.99248 2.3353 -126.654 -5.15875 4.67539 -7.12484 -0.0293371 17.3194 1.95798 3.52738 -16.1817 0.5016 -2.48206 -22.7407 -0.604373 -0.662856 27.3375 -13.5152 -3.18533 -4.77947 -0.132967 -1.72345 2.57366 -4.57599 -1.78919 3.95806 -6.04184 6.09394 0.0131434 1.37668 15.9817 -18.7629 4.06005 -7.25008 -15.3618 -33.9846 7.33825 2.78328 -0.178515 -1.00251 0.0988618 -5.34679 -19.1236 6.76613 -3.25706 8.80361 -13.6872 36.3889 -2.81023 0.0512194 0.00125635 3.23249 -5.49566 -1.7509 1.81303 -5.20556 -0.345543 
49.6246 38.8156 48.622 -5.27734 1.64067 -125.351 -4.99969 6.38143 -6.80233 -0.104678 18.5677 0.357943 3.55776 -19.2811 0.604528 -4.07349 -20.9511 -0.808317 0.0653187 12.6776 -15.0974 -0.458775 -3.76612 -0.0150834 -2.52495 2.40736 -5.11779 -1.96628 3.79211 -6.48996 6.43517 0.0154574 1.23408 15.8812 -19.947 3.40103 -7.67736 -17.7136 -34.0432 7.56488 2.52803 -0.16716 -0.593648 0.0712658 -5.5667 -19.0087 7.70712 -3.90704 8.14528 -12.5136 35.9741 -2.86017 0.213249 0.00532373 3.65435 -5.5468 -1.89964 1.9116 -5.09188 -0.376185 
48.4399 38.4068 47.3397 -5.95466 0.807078 -124.159 -4.83094 9.04406 -6.2628 -0.556087 19.0666 -1.50039 4.11282 -22.3454 0.812658 -5.48637 -22.3604 -1.23443 -0.295575 8.30955 -15.4179 3.22746 -6.64724 0.187479 -3.55792 2.22009 -5.66066 -2.29075 3.63 -6.79737 6.65939 0.0160206 1.10621 15.843 -20.422 2.90492 -8.12784 -19.9833 -34.4664 7.79201 2.21762 -0.151045 -0.295728 0.0511713 -5.7024 -18.7525 8.54774 -4.56262 7.43182 -11.1459 35.5541 -2.87098 0.396575 0.00993795 3.96158 -5.56239 -2.03986 1.98275 -4.99508 -0.433961 
47.2233 38.189 45.9966 -6.30078 0.745276 -123.47 -3.74288 12.4038 -5.37761 -1.11935 18.4343 -3.62973 4.53644 -23.1216 0.928429 -5.62672 -23.2267 -1.00854 -0.692935 8.52451 -15.5924 6.41464 -9.34049 0.52457 -3.78311 2.1975 -5.84769 -2.53451 3.59102 -6.97379 6.74037 0.0156289 1.02895 15.5883 -20.2288 2.57756 -8.44839 -21.6695 -35.0694 8.00711 1.91852 -0.134288 -0.131029 0.0409972 -5.74831 -18.2136 9.01563 -5.15712 6.71097 -9.8234 35.0254 -2.77602 0.570431 0.0138217 4.07542 -5.4646 -2.15646 1.96587 -4.826 -0.516573 
45.9268 38.0676 44.5255 -6.40271 1.25 -123.181 -2.12535 16.488 -4.4051 -1.31752 17.0208 -6.12421 4.24107 -22.5978 0.847738 -4.81016 -21.7274 -0.68288 0.12403 8.81535 -15.6348 5.2217 -8.24633 0.376678 -3.54121 2.14674 -5.77582 -2.49107 3.47678 -7.0243 6.7068 0.0155836 1.04615 15.0356 -19.3012 2.47917 -8.52779 -22.3175 -35.66 8.18623 1.71331 -0.122613 -0.0861719 0.0398669 -5.72214 -17.7286 9.43292 -5.66757 6.11307 -8.78568 34.5585 -2.54367 0.716967 0.0159178 3.96999 -5.22276 -2.23589 1.81676 -4.48095 -0.615412 
44.5575 38.0345 42.9274 -6.13228 2.18327 -123.135 0.125206 19.5552 -3.20216 -1.35756 17.7936 -8.87104 0.87958 -21.2711 0.165177 -2.4693 -20.6107 0.826518 0.353437 11.8234 -16.1935 0.0620134 -4.27813 0.00231627 -2.96384 1.90708 -5.57884 -2.04841 3.11294 -6.95779 6.6257 0.0166397 1.17277 14.1399 -17.6898 2.63226 -8.31501 -21.667 -36.0579 8.2513 1.6729 -0.120676 -0.112328 0.0437628 -5.66169 -17.5062 9.90637 -6.03554 5.74641 -8.22824 34.2592 -2.21077 0.8287 0.0159901 3.6862 -4.89236 -2.27856 1.53113 -3.9207 -0.718331 
43.2299 38.1585 41.3118 -5.18482 3.58619 -123.323 2.95866 20.1978 -1.70429 -1.15177 22.179 -10.8224 -3.64102 -18.0872 -0.579714 1.18025 -18.9427 3.58571 -0.724235 13.4649 -17.3765 -1.98789 1.47974 0.025674 -1.8553 1.52934 -5.28927 -1.2042 2.53985 -6.75028 6.54786 0.0186098 1.37758 12.9973 -15.748 3.03412 -7.81697 -19.7385 -36.1133 8.05856 1.83222 -0.129073 -0.157235 0.0489295 -5.59228 -17.5332 10.087 -6.16331 5.6596 -8.23375 34.072 -1.88809 0.894914 0.0147469 3.30239 -4.60323 -2.28722 1.15399 -3.23934 -0.811496 
41.9927 38.3718 39.7566 -3.75085 5.18807 -123.814 5.63686 17.3332 -0.133932 0.0256084 31.3883 -12.0207 -7.98949 -11.234 -0.787035 4.31861 -16.9258 5.60029 -0.79683 14.1528 -18.1298 0.0329831 4.23151 -0.00121852 -0.445533 1.13007 -4.88638 -0.082232 1.93098 -6.35272 6.48074 0.0206221 1.59572 11.8847 -13.8646 3.66516 -7.12626 -16.8361 -35.8219 7.47077 2.16698 -0.141493 -0.191699 0.0544596 -5.50094 -17.824 9.66705 -5.99013 5.85246 -8.75224 33.9554 -1.73335 0.895364 0.0135449 2.90994 -4.48597 -2.25798 0.766876 -2.64833 -0.886702 
40.8189 38.5334 38.2835 -2.37837 6.64211 -124.557 7.34792 12.2022 0.79911 2.90835 42.3829 -12.2739 -11.5284 1.45347 0.146728 6.63155 -15.564 6.45588 0.626411 16.2944 -18.1095 0.123544 2.39326 -0.00258061 0.860968 0.865128 -4.37086 1.04727 1.53833 -5.77448 6.42447 0.0218191 1.75501 11.1194 -12.2425 4.44977 -6.40683 -13.4879 -35.3755 6.49242 2.58693 -0.14675 -0.207161 0.0611572 -5.35901 -18.3681 8.53319 -5.52574 6.27714 -9.66298 33.9104 -1.89729 0.809243 0.0134001 2.60727 -4.57952 -2.19736 0.460027 -2.35244 -0.951909 
39.6728 38.5243 36.8851 -1.73288 7.49117 -125.26 7.37696 6.13746 1.11413 7.51032 53.886 -12.7588 -10.7171 10.5229 0.989786 8.47935 -14.7274 7.10624 1.68546 19.866 -18.3026 -2.4663 -1.33644 -0.0287692 1.50038 0.831804 -3.85214 1.85985 1.51336 -5.11705 6.39999 0.0220766 1.80677 10.9527 -10.8399 5.28335 -5.82816 -10.3306 -35.0679 5.34197 2.97432 -0.138787 -0.213011 0.0694804 -5.16685 -19.0765 6.74612 -4.84511 6.86257 -10.852 33.9478 -2.46031 0.638294 0.0137066 2.46381 -4.79257 -2.13688 0.289214 -2.41061 -1.0284 
38.5798 38.5463 35.5885 -1.72184 7.90279 -125.854 6.16118 0.0272656 0.599576 14.171 63.3825 -14.263 -8.76637 12.3961 0.953871 9.44381 -13.1694 7.53171 2.13691 22.2156 -18.661 -2.49794 -3.62287 -0.0790124 1.72118 1.04778 -3.34195 2.15728 1.82987 -4.4615 6.40692 0.0216366 1.76204 11.3174 -9.41995 6.05017 -5.4909 -7.95707 -35.0852 4.35652 3.25005 -0.123652 -0.247984 0.0799269 -4.9536 -19.6672 4.29681 -4.02603 7.51956 -12.2384 33.9906 -3.38291 0.41515 0.0122595 2.45076 -4.97105 -2.10382 0.243409 -2.69789 -1.13166 
37.5188 38.6208 34.3986 -2.15017 7.83303 -126.522 4.18878 -5.87393 -0.325269 21.9059 70.1353 -17.9296 -4.15707 7.03915 0.255795 9.82132 -11.1953 7.68554 2.06596 23.9684 -18.4341 -2.31166 -6.93961 -0.140183 1.59854 1.3426 -2.80848 2.0203 2.25152 -3.75574 6.38463 0.0205437 1.69999 12.0274 -7.68108 6.71974 -5.40844 -6.76217 -35.4174 3.79392 3.39966 -0.112631 -0.373251 0.0943405 -4.73155 -20.1568 1.44405 -3.16405 8.19499 -13.7301 34.0536 -4.50609 0.189169 0.00744254 2.43298 -5.00288 -2.07901 0.256856 -2.9999 -1.25641 
36.4581 38.7534 33.2913 -2.72033 7.40478 -127.648 1.95565 -11.3428 -1.39995 26.911 73.3007 -20.0383 -0.0875567 1.19587 0.000913771 9.82519 -8.55559 7.81707 1.43125 24.1942 -17.5322 -2.16594 -9.36757 -0.177476 1.32464 1.57733 -2.15141 1.6751 2.59249 -2.86916 6.25452 0.0188369 1.72043 12.8661 -5.46442 7.32605 -5.51987 -6.8415 -35.8831 3.70152 3.44027 -0.111199 -0.641503 0.115203 -4.47541 -20.6216 -1.56938 -2.3401 8.84227 -15.2114 34.1296 -5.61301 -0.00183599 -9.0004e-005 2.24899 -4.86131 -2.00372 0.259152 -3.15464 -1.38262 
35.3858 38.9194 32.243 -3.2944 6.82121 -129.455 -0.145086 -16.1863 -2.3601 25.7368 73.3769 -16.2598 2.25756 -2.26874 0.0447081 9.24251 -5.46315 7.65237 0.923149 23.2173 -15.7234 -2.35209 -11.1605 -0.229838 1.04216 1.74439 -1.3063 1.32009 2.84167 -1.73356 5.99346 0.0162822 1.87788 13.6476 -2.86167 7.91639 -5.72306 -7.97739 -36.2405 3.93088 3.38954 -0.116352 -1.06157 0.142565 -4.15808 -21.0902 -4.6233 -1.6044 9.41545 -16.5826 34.1748 -6.52179 -0.146791 -0.00836341 1.80518 -4.59157 -1.8334 0.215201 -3.13217 -1.49494 
